<mxfile host="app.diagrams.net" modified="2023-10-15T09:25:03.627Z" agent="Mozilla/5.0 (Windows NT 10.0; Win64; x64) AppleWebKit/537.36 (KHTML, like Gecko) Chrome/117.0.0.0 Safari/537.36" etag="EorQcsjTzg-qjyxel7PM" version="22.0.4" type="device">
  <diagram name="Page-1" id="8sShOx1lMby1grRIeiZ8">
    <mxGraphModel dx="941" dy="1599" grid="1" gridSize="10" guides="1" tooltips="1" connect="1" arrows="1" fold="1" page="1" pageScale="1" pageWidth="850" pageHeight="1100" math="0" shadow="0">
      <root>
        <mxCell id="0" />
        <mxCell id="1" parent="0" />
        <mxCell id="o1dyEUyVpxBA8Jw2JiBK-70" style="edgeStyle=orthogonalEdgeStyle;rounded=0;orthogonalLoop=1;jettySize=auto;html=1;entryX=0;entryY=0.5;entryDx=0;entryDy=0;" edge="1" parent="1" source="o1dyEUyVpxBA8Jw2JiBK-12" target="o1dyEUyVpxBA8Jw2JiBK-69">
          <mxGeometry relative="1" as="geometry">
            <Array as="points">
              <mxPoint x="360" y="50" />
              <mxPoint x="280" y="50" />
              <mxPoint x="280" y="-10" />
            </Array>
          </mxGeometry>
        </mxCell>
        <mxCell id="o1dyEUyVpxBA8Jw2JiBK-72" value="Text Prompt" style="edgeLabel;html=1;align=center;verticalAlign=middle;resizable=0;points=[];" vertex="1" connectable="0" parent="o1dyEUyVpxBA8Jw2JiBK-70">
          <mxGeometry x="-0.165" y="2" relative="1" as="geometry">
            <mxPoint x="-25" y="-22" as="offset" />
          </mxGeometry>
        </mxCell>
        <mxCell id="o1dyEUyVpxBA8Jw2JiBK-12" value="Process" style="ellipse;whiteSpace=wrap;html=1;aspect=fixed;" vertex="1" parent="1">
          <mxGeometry x="330" y="80" width="80" height="80" as="geometry" />
        </mxCell>
        <mxCell id="o1dyEUyVpxBA8Jw2JiBK-16" value="User" style="rounded=0;whiteSpace=wrap;html=1;" vertex="1" parent="1">
          <mxGeometry x="50" y="90" width="150" height="60" as="geometry" />
        </mxCell>
        <mxCell id="o1dyEUyVpxBA8Jw2JiBK-17" style="edgeStyle=orthogonalEdgeStyle;rounded=0;orthogonalLoop=1;jettySize=auto;html=1;entryX=0.5;entryY=1;entryDx=0;entryDy=0;exitX=0.5;exitY=1;exitDx=0;exitDy=0;" edge="1" source="o1dyEUyVpxBA8Jw2JiBK-12" target="o1dyEUyVpxBA8Jw2JiBK-16" parent="1">
          <mxGeometry relative="1" as="geometry">
            <mxPoint x="600.0285714285715" y="150" as="sourcePoint" />
            <Array as="points">
              <mxPoint x="370" y="200" />
              <mxPoint x="125" y="200" />
            </Array>
          </mxGeometry>
        </mxCell>
        <mxCell id="o1dyEUyVpxBA8Jw2JiBK-18" value="Diagrams" style="edgeLabel;html=1;align=center;verticalAlign=middle;resizable=0;points=[];" vertex="1" connectable="0" parent="o1dyEUyVpxBA8Jw2JiBK-17">
          <mxGeometry x="0.0681" y="-1" relative="1" as="geometry">
            <mxPoint x="17" as="offset" />
          </mxGeometry>
        </mxCell>
        <mxCell id="o1dyEUyVpxBA8Jw2JiBK-21" style="edgeStyle=orthogonalEdgeStyle;rounded=0;orthogonalLoop=1;jettySize=auto;html=1;entryX=0;entryY=0.5;entryDx=0;entryDy=0;" edge="1" source="o1dyEUyVpxBA8Jw2JiBK-22" target="o1dyEUyVpxBA8Jw2JiBK-31" parent="1">
          <mxGeometry relative="1" as="geometry" />
        </mxCell>
        <mxCell id="o1dyEUyVpxBA8Jw2JiBK-32" value="Image Dataset" style="edgeLabel;html=1;align=center;verticalAlign=middle;resizable=0;points=[];" vertex="1" connectable="0" parent="o1dyEUyVpxBA8Jw2JiBK-21">
          <mxGeometry x="-0.2373" y="1" relative="1" as="geometry">
            <mxPoint x="14" y="1" as="offset" />
          </mxGeometry>
        </mxCell>
        <mxCell id="o1dyEUyVpxBA8Jw2JiBK-22" value="RetrieveImagesLAION()" style="ellipse;whiteSpace=wrap;html=1;aspect=fixed;" vertex="1" parent="1">
          <mxGeometry x="330" y="725" width="150" height="150" as="geometry" />
        </mxCell>
        <mxCell id="o1dyEUyVpxBA8Jw2JiBK-23" style="edgeStyle=orthogonalEdgeStyle;rounded=0;orthogonalLoop=1;jettySize=auto;html=1;" edge="1" source="o1dyEUyVpxBA8Jw2JiBK-26" target="o1dyEUyVpxBA8Jw2JiBK-22" parent="1">
          <mxGeometry relative="1" as="geometry" />
        </mxCell>
        <mxCell id="o1dyEUyVpxBA8Jw2JiBK-24" value="Text prompt" style="edgeLabel;html=1;align=center;verticalAlign=middle;resizable=0;points=[];" vertex="1" connectable="0" parent="o1dyEUyVpxBA8Jw2JiBK-23">
          <mxGeometry x="-0.4558" y="-1" relative="1" as="geometry">
            <mxPoint x="27" y="-1" as="offset" />
          </mxGeometry>
        </mxCell>
        <mxCell id="o1dyEUyVpxBA8Jw2JiBK-26" value="User" style="rounded=0;whiteSpace=wrap;html=1;" vertex="1" parent="1">
          <mxGeometry x="60" y="770" width="150" height="60" as="geometry" />
        </mxCell>
        <mxCell id="o1dyEUyVpxBA8Jw2JiBK-27" style="edgeStyle=orthogonalEdgeStyle;rounded=0;orthogonalLoop=1;jettySize=auto;html=1;entryX=0.5;entryY=1;entryDx=0;entryDy=0;exitX=0;exitY=0.5;exitDx=0;exitDy=0;" edge="1" source="o1dyEUyVpxBA8Jw2JiBK-33" target="o1dyEUyVpxBA8Jw2JiBK-26" parent="1">
          <mxGeometry relative="1" as="geometry">
            <mxPoint x="395" y="1109.9999999999998" as="sourcePoint" />
            <Array as="points">
              <mxPoint x="135" y="1080" />
            </Array>
          </mxGeometry>
        </mxCell>
        <mxCell id="o1dyEUyVpxBA8Jw2JiBK-28" value="Diagrams" style="edgeLabel;html=1;align=center;verticalAlign=middle;resizable=0;points=[];" vertex="1" connectable="0" parent="o1dyEUyVpxBA8Jw2JiBK-27">
          <mxGeometry x="0.0681" y="-1" relative="1" as="geometry">
            <mxPoint x="187" y="1" as="offset" />
          </mxGeometry>
        </mxCell>
        <mxCell id="o1dyEUyVpxBA8Jw2JiBK-30" value="&lt;u&gt;Level 1 DFD&lt;/u&gt;" style="text;html=1;align=center;verticalAlign=middle;resizable=0;points=[];autosize=1;strokeColor=none;fillColor=none;" vertex="1" parent="1">
          <mxGeometry x="50" y="550" width="90" height="30" as="geometry" />
        </mxCell>
        <mxCell id="o1dyEUyVpxBA8Jw2JiBK-34" style="edgeStyle=orthogonalEdgeStyle;rounded=0;orthogonalLoop=1;jettySize=auto;html=1;" edge="1" parent="1" source="o1dyEUyVpxBA8Jw2JiBK-31" target="o1dyEUyVpxBA8Jw2JiBK-33">
          <mxGeometry relative="1" as="geometry" />
        </mxCell>
        <mxCell id="o1dyEUyVpxBA8Jw2JiBK-35" value="Image Metrics" style="edgeLabel;html=1;align=center;verticalAlign=middle;resizable=0;points=[];" vertex="1" connectable="0" parent="o1dyEUyVpxBA8Jw2JiBK-34">
          <mxGeometry x="0.1268" relative="1" as="geometry">
            <mxPoint y="-8" as="offset" />
          </mxGeometry>
        </mxCell>
        <mxCell id="o1dyEUyVpxBA8Jw2JiBK-31" value="DeepFaceProcess()" style="ellipse;whiteSpace=wrap;html=1;aspect=fixed;" vertex="1" parent="1">
          <mxGeometry x="600" y="725" width="150" height="150" as="geometry" />
        </mxCell>
        <mxCell id="o1dyEUyVpxBA8Jw2JiBK-33" value="MetricGenderDisplay() |&lt;br&gt;MetricRaceDisplay() |&lt;br&gt;MetricEmotionDisplay() |&lt;br&gt;MetricAgeDisplay() |" style="ellipse;whiteSpace=wrap;html=1;aspect=fixed;" vertex="1" parent="1">
          <mxGeometry x="600" y="1005" width="150" height="150" as="geometry" />
        </mxCell>
        <mxCell id="o1dyEUyVpxBA8Jw2JiBK-51" style="edgeStyle=orthogonalEdgeStyle;rounded=0;orthogonalLoop=1;jettySize=auto;html=1;entryX=0.5;entryY=0;entryDx=0;entryDy=0;" edge="1" parent="1" source="o1dyEUyVpxBA8Jw2JiBK-49" target="o1dyEUyVpxBA8Jw2JiBK-31">
          <mxGeometry relative="1" as="geometry">
            <mxPoint x="709.9999999999975" y="655" as="targetPoint" />
          </mxGeometry>
        </mxCell>
        <mxCell id="o1dyEUyVpxBA8Jw2JiBK-52" value="Image Dataset" style="edgeLabel;html=1;align=center;verticalAlign=middle;resizable=0;points=[];" vertex="1" connectable="0" parent="o1dyEUyVpxBA8Jw2JiBK-51">
          <mxGeometry x="-0.2828" y="2" relative="1" as="geometry">
            <mxPoint x="-4" y="-2" as="offset" />
          </mxGeometry>
        </mxCell>
        <mxCell id="o1dyEUyVpxBA8Jw2JiBK-53" style="edgeStyle=orthogonalEdgeStyle;rounded=0;orthogonalLoop=1;jettySize=auto;html=1;entryX=1;entryY=0.5;entryDx=0;entryDy=0;exitX=0.5;exitY=1;exitDx=0;exitDy=0;" edge="1" parent="1" source="o1dyEUyVpxBA8Jw2JiBK-49" target="o1dyEUyVpxBA8Jw2JiBK-33">
          <mxGeometry relative="1" as="geometry">
            <Array as="points">
              <mxPoint x="830" y="1080" />
            </Array>
          </mxGeometry>
        </mxCell>
        <mxCell id="o1dyEUyVpxBA8Jw2JiBK-55" value="Image Metrics" style="edgeLabel;html=1;align=center;verticalAlign=middle;resizable=0;points=[];" vertex="1" connectable="0" parent="o1dyEUyVpxBA8Jw2JiBK-53">
          <mxGeometry x="-0.2356" relative="1" as="geometry">
            <mxPoint as="offset" />
          </mxGeometry>
        </mxCell>
        <mxCell id="o1dyEUyVpxBA8Jw2JiBK-49" value="Hard Disk" style="html=1;dashed=0;whiteSpace=wrap;shape=partialRectangle;right=0;" vertex="1" parent="1">
          <mxGeometry x="780" y="660" width="100" height="30" as="geometry" />
        </mxCell>
        <mxCell id="o1dyEUyVpxBA8Jw2JiBK-57" style="edgeStyle=orthogonalEdgeStyle;rounded=0;orthogonalLoop=1;jettySize=auto;html=1;entryX=1;entryY=0.5;entryDx=0;entryDy=0;" edge="1" parent="1" source="o1dyEUyVpxBA8Jw2JiBK-56" target="o1dyEUyVpxBA8Jw2JiBK-12">
          <mxGeometry relative="1" as="geometry" />
        </mxCell>
        <mxCell id="o1dyEUyVpxBA8Jw2JiBK-58" value="Image Dataset" style="edgeLabel;html=1;align=center;verticalAlign=middle;resizable=0;points=[];" vertex="1" connectable="0" parent="o1dyEUyVpxBA8Jw2JiBK-57">
          <mxGeometry x="-0.1104" relative="1" as="geometry">
            <mxPoint x="-4" as="offset" />
          </mxGeometry>
        </mxCell>
        <mxCell id="o1dyEUyVpxBA8Jw2JiBK-56" value="Hard Disk" style="html=1;dashed=0;whiteSpace=wrap;shape=partialRectangle;right=0;" vertex="1" parent="1">
          <mxGeometry x="580" y="105" width="100" height="30" as="geometry" />
        </mxCell>
        <mxCell id="o1dyEUyVpxBA8Jw2JiBK-61" style="edgeStyle=orthogonalEdgeStyle;rounded=0;orthogonalLoop=1;jettySize=auto;html=1;exitX=1;exitY=0.75;exitDx=0;exitDy=0;entryX=0;entryY=0.5;entryDx=0;entryDy=0;" edge="1" parent="1" source="o1dyEUyVpxBA8Jw2JiBK-16" target="o1dyEUyVpxBA8Jw2JiBK-12">
          <mxGeometry relative="1" as="geometry">
            <mxPoint x="330" y="39.67" as="sourcePoint" />
            <mxPoint x="450" y="39.67" as="targetPoint" />
            <Array as="points">
              <mxPoint x="200" y="120" />
            </Array>
          </mxGeometry>
        </mxCell>
        <mxCell id="o1dyEUyVpxBA8Jw2JiBK-62" value="Text Prompt" style="edgeLabel;html=1;align=center;verticalAlign=middle;resizable=0;points=[];" vertex="1" connectable="0" parent="o1dyEUyVpxBA8Jw2JiBK-61">
          <mxGeometry x="-0.4558" y="-1" relative="1" as="geometry">
            <mxPoint x="36" y="-1" as="offset" />
          </mxGeometry>
        </mxCell>
        <mxCell id="o1dyEUyVpxBA8Jw2JiBK-64" style="edgeStyle=orthogonalEdgeStyle;rounded=0;orthogonalLoop=1;jettySize=auto;html=1;exitX=0;exitY=0.5;exitDx=0;exitDy=0;entryX=1;entryY=0.5;entryDx=0;entryDy=0;" edge="1" parent="1" source="o1dyEUyVpxBA8Jw2JiBK-56" target="o1dyEUyVpxBA8Jw2JiBK-12">
          <mxGeometry relative="1" as="geometry">
            <mxPoint x="550" y="130" as="sourcePoint" />
            <mxPoint x="420" y="150" as="targetPoint" />
            <Array as="points">
              <mxPoint x="560" y="120" />
              <mxPoint x="560" y="140" />
              <mxPoint x="430" y="140" />
              <mxPoint x="430" y="120" />
            </Array>
          </mxGeometry>
        </mxCell>
        <mxCell id="o1dyEUyVpxBA8Jw2JiBK-67" value="Image Metrics" style="edgeLabel;html=1;align=center;verticalAlign=middle;resizable=0;points=[];" vertex="1" connectable="0" parent="o1dyEUyVpxBA8Jw2JiBK-64">
          <mxGeometry x="-0.0454" y="-2" relative="1" as="geometry">
            <mxPoint x="1" as="offset" />
          </mxGeometry>
        </mxCell>
        <mxCell id="o1dyEUyVpxBA8Jw2JiBK-69" value="Dataset Source" style="rounded=0;whiteSpace=wrap;html=1;" vertex="1" parent="1">
          <mxGeometry x="310" y="-40" width="120" height="60" as="geometry" />
        </mxCell>
        <mxCell id="o1dyEUyVpxBA8Jw2JiBK-71" style="edgeStyle=orthogonalEdgeStyle;rounded=0;orthogonalLoop=1;jettySize=auto;html=1;entryX=0.633;entryY=0.039;entryDx=0;entryDy=0;entryPerimeter=0;" edge="1" parent="1" source="o1dyEUyVpxBA8Jw2JiBK-69" target="o1dyEUyVpxBA8Jw2JiBK-12">
          <mxGeometry relative="1" as="geometry">
            <mxPoint x="390" y="40" as="targetPoint" />
            <Array as="points">
              <mxPoint x="460" y="-10" />
              <mxPoint x="460" y="50" />
              <mxPoint x="381" y="50" />
            </Array>
          </mxGeometry>
        </mxCell>
        <mxCell id="o1dyEUyVpxBA8Jw2JiBK-73" value="Image Dataset" style="edgeLabel;html=1;align=center;verticalAlign=middle;resizable=0;points=[];" vertex="1" connectable="0" parent="o1dyEUyVpxBA8Jw2JiBK-71">
          <mxGeometry x="-0.4749" relative="1" as="geometry">
            <mxPoint y="17" as="offset" />
          </mxGeometry>
        </mxCell>
        <mxCell id="o1dyEUyVpxBA8Jw2JiBK-74" value="Level 0 DFD" style="shape=umlFrame;whiteSpace=wrap;html=1;pointerEvents=0;width=80;height=30;" vertex="1" parent="1">
          <mxGeometry x="40" y="-80" width="650" height="290" as="geometry" />
        </mxCell>
        <mxCell id="o1dyEUyVpxBA8Jw2JiBK-78" value="Dataset Source" style="rounded=0;whiteSpace=wrap;html=1;" vertex="1" parent="1">
          <mxGeometry x="350" y="610" width="120" height="60" as="geometry" />
        </mxCell>
        <mxCell id="o1dyEUyVpxBA8Jw2JiBK-79" style="edgeStyle=orthogonalEdgeStyle;rounded=0;orthogonalLoop=1;jettySize=auto;html=1;entryX=0;entryY=0.5;entryDx=0;entryDy=0;exitX=0;exitY=0;exitDx=0;exitDy=0;" edge="1" target="o1dyEUyVpxBA8Jw2JiBK-78" parent="1" source="o1dyEUyVpxBA8Jw2JiBK-22">
          <mxGeometry relative="1" as="geometry">
            <mxPoint x="400" y="671" as="sourcePoint" />
            <Array as="points">
              <mxPoint x="352" y="720" />
              <mxPoint x="320" y="720" />
              <mxPoint x="320" y="640" />
            </Array>
          </mxGeometry>
        </mxCell>
        <mxCell id="o1dyEUyVpxBA8Jw2JiBK-80" value="Text Prompt" style="edgeLabel;html=1;align=center;verticalAlign=middle;resizable=0;points=[];" vertex="1" connectable="0" parent="o1dyEUyVpxBA8Jw2JiBK-79">
          <mxGeometry x="-0.165" y="2" relative="1" as="geometry">
            <mxPoint x="2" y="-18" as="offset" />
          </mxGeometry>
        </mxCell>
        <mxCell id="o1dyEUyVpxBA8Jw2JiBK-81" style="edgeStyle=orthogonalEdgeStyle;rounded=0;orthogonalLoop=1;jettySize=auto;html=1;entryX=0.832;entryY=0.148;entryDx=0;entryDy=0;entryPerimeter=0;" edge="1" source="o1dyEUyVpxBA8Jw2JiBK-78" parent="1" target="o1dyEUyVpxBA8Jw2JiBK-22">
          <mxGeometry relative="1" as="geometry">
            <mxPoint x="421" y="673" as="targetPoint" />
            <Array as="points">
              <mxPoint x="500" y="640" />
              <mxPoint x="500" y="720" />
              <mxPoint x="455" y="720" />
            </Array>
          </mxGeometry>
        </mxCell>
        <mxCell id="o1dyEUyVpxBA8Jw2JiBK-82" value="Image Dataset" style="edgeLabel;html=1;align=center;verticalAlign=middle;resizable=0;points=[];" vertex="1" connectable="0" parent="o1dyEUyVpxBA8Jw2JiBK-81">
          <mxGeometry x="-0.4749" relative="1" as="geometry">
            <mxPoint y="32" as="offset" />
          </mxGeometry>
        </mxCell>
      </root>
    </mxGraphModel>
  </diagram>
</mxfile>
